<svg width="18" height="18" viewBox="0 0 18 18" fill="none" xmlns="http://www.w3.org/2000/svg">
<path d="M5.43 1.5H4.005C2.3625 1.5 1.5 2.3625 1.5 3.9975V5.4225C1.5 7.0575 2.3625 7.92 3.9975 7.92H5.4225C7.0575 7.92 7.92 7.0575 7.92 5.4225V3.9975C7.9275 2.3625 7.065 1.5 5.43 1.5Z" fill="#B3C3CA"/>
<path d="M14.0025 1.5H12.5775C10.9425 1.5 10.08 2.3625 10.08 3.9975V5.4225C10.08 7.0575 10.9425 7.92 12.5775 7.92H14.0025C15.6375 7.92 16.5 7.0575 16.5 5.4225V3.9975C16.5 2.3625 15.6375 1.5 14.0025 1.5Z" fill="#B3C3CA"/>
<path d="M14.0025 10.0725H12.5775C10.9425 10.0725 10.08 10.935 10.08 12.57V13.995C10.08 15.63 10.9425 16.4925 12.5775 16.4925H14.0025C15.6375 16.4925 16.5 15.63 16.5 13.995V12.57C16.5 10.935 15.6375 10.0725 14.0025 10.0725Z" fill="#B3C3CA"/>
<path d="M5.43 10.0725H4.005C2.3625 10.0725 1.5 10.935 1.5 12.57V13.995C1.5 15.6375 2.3625 16.5 3.9975 16.5H5.4225C7.0575 16.5 7.92 15.6375 7.92 14.0025V12.5775C7.9275 10.935 7.065 10.0725 5.43 10.0725Z" fill="#B3C3CA"/>
</svg>
