<svg width="14" height="18" viewBox="0 0 14 18" fill="none" xmlns="http://www.w3.org/2000/svg">
<path d="M6.99992 9L6.99992 14M6.99992 14L9.57131 12.3333M6.99992 14L4.42852 12.3333M13 6.5H10.6C9.63996 6.5 9.15956 6.49997 8.79286 6.31832C8.4703 6.15853 8.20824 5.90358 8.04389 5.58997C7.85705 5.23345 7.85705 4.76675 7.85705 3.83333V1.5M12.9998 13.8333V6.77125C12.9998 6.3636 12.9995 6.15974 12.9521 5.96793C12.9101 5.79787 12.841 5.63531 12.747 5.48619C12.641 5.318 12.4932 5.17387 12.1967 4.88562L9.51774 2.28105C9.22126 1.9928 9.073 1.84869 8.9 1.74562C8.74662 1.65423 8.57946 1.58688 8.40454 1.54605C8.20725 1.5 7.99753 1.5 7.57823 1.5H3.74299C2.78291 1.5 2.30251 1.5 1.93581 1.68166C1.61325 1.84144 1.3512 2.09643 1.18684 2.41003C1 2.76655 1 3.23326 1 4.16668V13.8333C1 14.7668 1 15.2335 1.18684 15.59C1.3512 15.9036 1.61325 16.1585 1.93581 16.3183C2.30251 16.5 2.78291 16.5 3.74299 16.5H10.2572C11.2173 16.5 11.697 16.5 12.0637 16.3183C12.3862 16.1585 12.6488 15.9036 12.8132 15.59C13 15.2335 12.9998 14.7668 12.9998 13.8333Z" stroke="white" stroke-width="1.5" stroke-linecap="round" stroke-linejoin="round"/>
</svg>
