<svg width="18" height="18" viewBox="0 0 18 18" fill="none" xmlns="http://www.w3.org/2000/svg">
<path d="M12.6602 7.5C10.6952 7.5 9.09766 9.0975 9.09766 11.0625C9.09766 11.73 9.28516 12.36 9.61516 12.9C10.2302 13.935 11.3627 14.625 12.6602 14.625C13.9577 14.625 15.0902 13.9275 15.7052 12.9C16.0352 12.3675 16.2227 11.73 16.2227 11.0625C16.2227 9.0975 14.6327 7.5 12.6602 7.5ZM13.9952 11.61H13.2227V12.4125C13.2227 12.72 12.9677 12.975 12.6602 12.975C12.3527 12.975 12.0977 12.72 12.0977 12.4125V11.61H11.3327C11.0252 11.61 10.7702 11.355 10.7702 11.0475C10.7702 10.74 11.0252 10.485 11.3327 10.485H12.0977V9.75C12.0977 9.4425 12.3527 9.1875 12.6602 9.1875C12.9677 9.1875 13.2227 9.4425 13.2227 9.75V10.485H13.9952C14.3027 10.485 14.5577 10.74 14.5577 11.0475C14.5577 11.355 14.3027 11.61 13.9952 11.61Z" fill="#B3C3CA"/>
<path d="M15.4354 3.015V4.68C15.4354 5.2875 15.0604 6.045 14.6854 6.4275L14.5504 6.5475C14.4454 6.645 14.2879 6.6675 14.1529 6.6225C14.0029 6.57 13.8529 6.5325 13.7029 6.495C13.3729 6.4125 13.0204 6.375 12.6604 6.375C10.0729 6.375 7.97293 8.475 7.97293 11.0625C7.97293 11.9175 8.20543 12.7575 8.64793 13.4775C9.02293 14.1075 9.54793 14.6325 10.1179 14.985C10.2904 15.0975 10.3579 15.3375 10.2079 15.4725C10.1554 15.5175 10.1029 15.555 10.0504 15.5925L9.00043 16.275C8.02543 16.8825 6.68293 16.2 6.68293 14.985V10.9725C6.68293 10.44 6.38293 9.7575 6.08293 9.3825L3.24043 6.3525C2.86543 5.97 2.56543 5.2875 2.56543 4.8375V3.09C2.56543 2.1825 3.24043 1.5 4.05793 1.5H13.9429C14.7604 1.5 15.4354 2.1825 15.4354 3.015Z" fill="#B3C3CA"/>
</svg>
