<svg width="178" height="30" viewBox="0 0 178 30" fill="none" xmlns="http://www.w3.org/2000/svg">
<path d="M15 0L19.4084 8.93237L29.2658 10.3647L22.1329 17.3176L23.8168 27.1353L15 22.5L6.18322 27.1353L7.86708 17.3176L0.734152 10.3647L10.5916 8.93237L15 0Z" fill="#ED8323"/>
<path d="M52 0L56.4084 8.93237L66.2658 10.3647L59.1329 17.3176L60.8168 27.1353L52 22.5L43.1832 27.1353L44.8671 17.3176L37.7342 10.3647L47.5916 8.93237L52 0Z" fill="#ED8323"/>
<path d="M89 0L93.4084 8.93237L103.266 10.3647L96.1329 17.3176L97.8168 27.1353L89 22.5L80.1832 27.1353L81.8671 17.3176L74.7342 10.3647L84.5916 8.93237L89 0Z" fill="#ED8323"/>
<path d="M126 0L130.408 8.93237L140.266 10.3647L133.133 17.3176L134.817 27.1353L126 22.5L117.183 27.1353L118.867 17.3176L111.734 10.3647L121.592 8.93237L126 0Z" fill="#ED8323"/>
<path d="M163 0L167.408 8.93237L177.266 10.3647L170.133 17.3176L171.817 27.1353L163 22.5L154.183 27.1353L155.867 17.3176L148.734 10.3647L158.592 8.93237L163 0Z" fill="#E6F3F8"/>
<mask id="mask0_189_6490" style="mask-type:alpha" maskUnits="userSpaceOnUse" x="148" y="0" width="30" height="28">
<path d="M163 0L167.408 8.93237L177.266 10.3647L170.133 17.3176L171.817 27.1353L163 22.5L154.183 27.1353L155.867 17.3176L148.734 10.3647L158.592 8.93237L163 0Z" fill="#E6F3F8"/>
</mask>
<g mask="url(#mask0_189_6490)">
<rect x="148" width="21" height="36" fill="#ED8323"/>
</g>
</svg>
