<svg width="16" height="16" viewBox="0 0 16 16" fill="none" xmlns="http://www.w3.org/2000/svg">
<g clip-path="url(#clip0_304_2179)">
<path d="M3.27734 5.23096H0.474938C0.212656 5.23096 0 5.44361 0 5.70589V15.2158C0 15.4781 0.212656 15.6908 0.474938 15.6908H3.27738C3.53966 15.6908 3.75231 15.4781 3.75231 15.2158V5.70589C3.75228 5.44361 3.53966 5.23096 3.27734 5.23096ZM2.80244 14.7409H0.949875V6.18083H2.80244V14.7409Z" fill="#ED8323"/>
<path d="M14.8365 6.76073C14.0153 5.76011 12.8621 5.2312 11.5015 5.2312C10.7648 5.2312 10.1133 5.38614 9.55413 5.69308C9.54719 5.43683 9.33731 5.2312 9.07938 5.2312H6.27694C6.01466 5.2312 5.802 5.44386 5.802 5.70614V15.216C5.802 15.4783 6.01466 15.691 6.27694 15.691H9.07938C9.34166 15.691 9.55432 15.4783 9.55432 15.216V10.3302C9.55432 9.58761 10.1584 8.98348 10.901 8.98348C11.6435 8.98348 12.2477 9.58761 12.2477 10.3302V15.216C12.2477 15.4783 12.4603 15.691 12.7226 15.691H15.5251C15.7873 15.691 16 15.4783 16 15.216V10.3302C16 8.94255 15.5868 7.67486 14.8365 6.76073ZM15.0501 14.7411H13.1975V10.3302C13.1975 9.06383 12.1673 8.03361 10.9009 8.03361C9.63463 8.03361 8.60441 9.06383 8.60441 10.3302V14.7411H6.75185V6.18101H8.60441V6.64514C8.60441 6.83811 8.72116 7.01192 8.89985 7.08486C9.0785 7.15773 9.28353 7.11536 9.4186 6.97751C9.93638 6.44901 10.6372 6.18101 11.5015 6.18101C13.9528 6.18101 15.0501 8.26489 15.0501 10.3301V14.7411H15.0501Z" fill="#ED8323"/>
<path d="M1.87616 0.309082C0.841656 0.309082 0 1.15071 0 2.18521C0 3.21971 0.841656 4.06133 1.87616 4.06133C2.91066 4.06133 3.75231 3.21971 3.75231 2.18521C3.75228 1.15071 2.91066 0.309082 1.87616 0.309082ZM1.87616 3.11149C1.36541 3.11149 0.949875 2.69599 0.949875 2.18521C0.949875 1.67443 1.36541 1.25893 1.87616 1.25893C2.38691 1.25893 2.80244 1.67446 2.80244 2.18521C2.80244 2.69596 2.38688 3.11149 1.87616 3.11149Z" fill="#ED8323"/>
</g>
<defs>
<clipPath id="clip0_304_2179">
<rect width="16" height="16" fill="white"/>
</clipPath>
</defs>
</svg>
