<svg width="18" height="18" viewBox="0 0 18 18" fill="none" xmlns="http://www.w3.org/2000/svg">
<path d="M12.1425 1.5H5.8575C3.1275 1.5 1.5 3.1275 1.5 5.8575V12.135C1.5 14.8725 3.1275 16.5 5.8575 16.5H12.135C14.865 16.5 16.4925 14.8725 16.4925 12.1425V5.8575C16.5 3.1275 14.8725 1.5 12.1425 1.5ZM8.7075 11.13C8.7075 11.9475 8.07 12.585 7.2525 12.585H6.1425C5.34 12.585 4.6875 11.9325 4.6875 11.13V9.1275C4.6875 6.8175 5.19 6.3 6.5325 5.505C6.6225 5.4525 6.72 5.43 6.8175 5.43C7.0125 5.43 7.2 5.5275 7.305 5.7075C7.4625 5.9775 7.3725 6.3225 7.11 6.48C6.2025 7.005 5.8875 7.2 5.8275 8.5575H7.26C8.0775 8.5575 8.715 9.195 8.715 10.0125V11.13H8.7075ZM13.3125 11.13C13.3125 11.9475 12.675 12.585 11.8575 12.585H10.74C9.9375 12.585 9.285 11.9325 9.285 11.13V9.1275C9.285 6.8175 9.7875 6.3 11.13 5.505C11.22 5.4525 11.3175 5.43 11.415 5.43C11.61 5.43 11.7975 5.5275 11.9025 5.7075C12.06 5.9775 11.97 6.3225 11.7075 6.48C10.8 7.02 10.485 7.215 10.425 8.5725H11.8575C12.675 8.5725 13.3125 9.21 13.3125 10.0275V11.13Z" fill="#B3C3CA"/>
</svg>
