<svg width="34" height="34" viewBox="0 0 34 34" fill="none" xmlns="http://www.w3.org/2000/svg">
<path d="M17.4251 31.188C25.9094 31.188 32.7771 24.2035 32.7771 15.594C32.7771 6.98455 25.901 0 17.4251 0C8.94928 0 2.07312 6.97605 2.07312 15.594C2.07312 24.212 8.94928 31.188 17.4251 31.188Z" fill="white"/>
<path d="M2.07318 15.594C2.07318 6.97605 8.94096 0 17.4252 0C22.5844 0 27.149 2.58624 29.938 6.55919L26.4036 19.652L26.2947 6.54217H23.5141L19.7535 19.652L19.8624 6.54217H16.7552L17.2996 26.509H20.0802L23.891 13.901L24.2176 26.509H26.9982L31.8894 10.3535C32.4673 11.9954 32.7772 13.7564 32.7772 15.594C32.7772 24.212 25.901 31.188 17.4252 31.188C13.1538 31.188 9.29273 29.41 6.50373 26.56C7.00626 26.7472 7.59253 26.8493 8.23743 26.8493C11.0934 26.8493 13.3548 24.8841 13.7903 21.7874C14.1421 19.048 12.8355 17.338 11.0934 15.3133C9.62774 13.5948 8.63945 12.4633 8.85721 10.915C8.99121 9.89408 9.59424 9.06035 10.683 9.06035C11.7718 9.06035 12.1822 9.78348 11.8807 11.7997L11.7467 12.9057H14.7702L14.9377 11.6296C15.457 7.89484 13.9578 6.21038 11.1018 6.21038C7.77679 6.21038 6.06822 8.50737 5.70808 11.0511C5.33119 13.901 6.822 15.7216 8.23743 17.3295C9.67799 18.9289 10.8757 20.1795 10.6077 22.0341C10.415 23.5229 9.49373 23.9397 8.6227 23.9397C7.34127 23.9397 6.93088 23.055 7.15701 21.5066L7.3999 19.6776H4.3764L4.10001 21.7534C4.02463 22.2978 4.01626 22.8083 4.06651 23.2932C2.79346 21.0217 2.0648 18.3929 2.0648 15.594H2.07318ZM34 19.6776C33.8492 20.3667 33.665 21.0557 33.4305 21.7363C30.3065 30.7542 20.5743 35.4928 11.6881 32.3195C2.81021 29.1378 -1.85486 19.2522 1.26914 10.2344C1.50365 9.55378 1.78004 8.89871 2.08993 8.26917C1.66278 9.07737 1.28589 9.9196 0.976006 10.8129C-2.16475 19.8817 2.52545 29.8183 11.4452 33.0086C20.3733 36.1989 30.1557 31.4347 33.2965 22.3744C33.6064 21.4811 33.8409 20.5793 34 19.6776Z" fill="#ED8322"/>
</svg>
