<svg width="180" height="41" viewBox="0 0 180 41" fill="none" xmlns="http://www.w3.org/2000/svg">
<g clip-path="url(#clip0_304_2143)">
<path d="M21.0623 37.6754C31.2563 37.6754 39.5081 29.4292 39.5081 19.2646C39.5081 9.09996 31.2462 0.85376 21.0623 0.85376C10.8783 0.85376 2.61646 9.08992 2.61646 19.2646C2.61646 29.4393 10.8783 37.6754 21.0623 37.6754Z" fill="white"/>
<path d="M2.61646 19.2646C2.61646 9.08992 10.8683 0.85376 21.0623 0.85376C27.2612 0.85376 32.7456 3.90717 36.0966 8.59776L31.85 24.0556L31.7192 8.57767H28.3782L23.8598 24.0556L23.9906 8.57767H20.2572L20.9113 32.1512H24.2523L28.831 17.2658L29.2235 32.1512H32.5645L38.4414 13.0774C39.1357 15.0159 39.5081 17.0951 39.5081 19.2646C39.5081 29.4393 31.2462 37.6754 21.0623 37.6754C15.93 37.6754 11.2909 35.5762 7.93988 32.2114C8.54367 32.4324 9.24809 32.5529 10.023 32.5529C13.4545 32.5529 16.1716 30.2327 16.6948 26.5767C17.1175 23.3425 15.5476 21.3236 13.4545 18.9331C11.6934 16.9042 10.506 15.5684 10.7676 13.7403C10.9286 12.535 11.6532 11.5507 12.9614 11.5507C14.2696 11.5507 14.7627 12.4045 14.4004 14.7849L14.2394 16.0907H17.8722L18.0735 14.584C18.6974 10.1747 16.8961 8.18595 13.4646 8.18595C9.46948 8.18595 7.41659 10.8979 6.98387 13.901C6.53103 17.2658 8.32228 19.4152 10.023 21.3136C11.7538 23.2019 13.1929 24.6784 12.8708 26.868C12.6394 28.6257 11.5324 29.1178 10.4859 29.1178C8.94619 29.1178 8.4531 28.0733 8.7248 26.2452L9.01664 24.0858H5.38383L5.05175 26.5365C4.96118 27.1793 4.95111 27.782 5.01149 28.3545C3.48189 25.6727 2.60639 22.5691 2.60639 19.2646H2.61646ZM40.9773 24.0858C40.7961 24.8993 40.5747 25.7129 40.293 26.5164C36.5394 37.1632 24.846 42.7577 14.169 39.0113C3.50202 35.2548 -2.10317 23.5835 1.65039 12.9368C1.93216 12.1333 2.26425 11.3599 2.63658 10.6166C2.12336 11.5708 1.67052 12.5652 1.29818 13.6198C-2.47551 24.3268 3.15987 36.0583 13.8771 39.8249C24.6045 43.5914 36.3583 37.9667 40.132 27.2697C40.5043 26.2151 40.7861 25.1504 40.9773 24.0858Z" fill="#ED8322"/>
<path d="M54.9449 14.6041C56.2833 16.1308 57.2795 17.4164 57.0078 19.4855C56.6757 21.8157 54.9449 23.3023 52.7511 23.3023C50.5573 23.3023 49.2592 21.6952 49.5812 19.4654L49.7925 17.8985H52.1071L51.9159 19.2746C51.7448 20.4397 52.0567 21.1127 53.0429 21.1127C53.7071 21.1127 54.4216 20.8013 54.5725 19.6764C54.7839 18.2802 53.8581 17.3461 52.7511 16.1308C51.6643 14.9255 50.5171 13.5394 50.8089 11.4C51.0806 9.48159 52.3989 7.75401 54.9449 7.75401C57.1387 7.75401 58.2859 9.02961 57.8934 11.842L57.7726 12.7961H55.4581L55.5587 11.9625C55.7902 10.4358 55.438 9.90344 54.643 9.90344C53.8077 9.90344 53.3448 10.5262 53.2442 11.2996C53.0731 12.4647 53.8279 13.3184 54.9549 14.6141L54.9449 14.6041ZM68.7918 11.4603C69.1038 9.2104 67.8559 7.74396 65.5313 7.74396C63.2068 7.74396 61.5463 9.20036 61.2243 11.4603L60.0771 19.596C59.7651 21.8459 61.013 23.3123 63.3376 23.3123C65.6622 23.3123 67.3226 21.8559 67.6446 19.596L68.7918 11.4603ZM65.1188 19.6563C65.0181 20.4497 64.6558 21.1127 63.6596 21.1127C62.6633 21.1127 62.4721 20.4397 62.5728 19.6563L63.7401 11.4C63.8407 10.6065 64.2231 9.94362 65.2194 9.94362C66.2156 9.94362 66.3867 10.6166 66.2861 11.4L65.1188 19.6563ZM80.2034 8.00511H77.6977L76.0474 19.6563C75.9467 20.4497 75.5845 21.1127 74.5882 21.1127C73.5919 21.1127 73.4007 20.4397 73.5014 19.6563L75.1517 8.00511H72.646L71.0158 19.596C70.7038 21.8459 71.9516 23.3123 74.2762 23.3123C76.6008 23.3123 78.2613 21.8559 78.5833 19.596L80.2135 8.00511H80.2034ZM90.649 10.2349L90.961 8.00511H83.2123L82.9004 10.2349H85.5571L82.5381 31.7293H85.0237L88.0427 10.2349H90.6591H90.649ZM99.5046 23.0612L101.618 8.00511H99.1323L98.2367 14.3429H95.58L96.4756 8.00511H93.99L91.8767 23.0612H94.3623L95.258 16.5526H97.9146L97.019 23.0612H99.5046ZM109.819 8.00511L106.941 17.8885L107.022 8.00511H104.637L105.049 23.0612H107.183L110.111 13.5495L110.363 23.0612H112.496L117.135 8.00511H114.75L112.033 17.8885L111.953 8.00511H109.819ZM122.338 10.1947H126.303L126.615 8.00511H120.154L118.041 23.0612H124.663L124.975 20.8314H120.839L121.462 16.3317H124.391L124.683 14.2224H121.754L122.318 10.2048L122.338 10.1947ZM133.347 14.6141C132.22 13.3184 131.465 12.4647 131.636 11.2996C131.737 10.5262 132.2 9.90344 133.035 9.90344C133.87 9.90344 134.182 10.4458 133.951 11.9625L133.85 12.7961H136.165L136.286 11.842C136.678 9.02961 135.531 7.75401 133.337 7.75401C130.791 7.75401 129.473 9.48159 129.201 11.4C128.909 13.5495 130.056 14.9255 131.143 16.1308C132.25 17.3361 133.166 18.2802 132.965 19.6764C132.824 20.8013 132.109 21.1127 131.435 21.1127C130.449 21.1127 130.137 20.4397 130.308 19.2746L130.499 17.8985H128.185L127.973 19.4654C127.661 21.6952 128.849 23.3023 131.153 23.3023C133.458 23.3023 135.078 21.8258 135.41 19.4855C135.682 17.4265 134.685 16.1308 133.347 14.6141ZM146.902 10.2349L147.214 8.00511H139.465L139.154 10.2349H141.81L140.009 23.0612H142.495L144.296 10.2349H146.902ZM152.417 10.1947H156.382L156.694 8.00511H150.233L148.12 23.0612H154.741L155.053 20.8314H150.917L151.541 16.3317H154.47L154.762 14.2224H151.843L152.407 10.2048L152.417 10.1947ZM165.66 23.0612L164.613 16.4522C165.972 15.8495 166.636 14.9958 166.998 12.5149C167.351 9.95367 167.039 8.01515 164.12 8.01515H160.216L158.102 23.0713H160.608L161.484 16.8138H162.379L163.215 23.0713H165.66V23.0612ZM161.755 14.805L162.43 10.0943H163.406C164.533 10.0943 164.784 10.6166 164.533 12.4546C164.281 14.2927 163.859 14.815 162.732 14.815H161.755V14.805ZM176.75 23.0612L179.99 0.0100098H177.736L175.351 16.8841L173.449 8.00511H171.195L169.081 23.0612H171.336L172.634 13.8006L174.707 23.0612H176.76H176.75Z" fill="#75787B"/>
<path d="M93.4969 27.2296H95.8114L96.4857 37.1732H94.6039L94.5535 35.1042H92.5711L91.9371 37.1732H90.0553L93.517 27.2296H93.4969ZM93.0139 33.6879H94.473L94.3321 29.5799L93.0139 33.6879ZM106.519 34.4814C106.297 36.0383 105.382 37.1632 103.107 37.1632H100.35L101.719 27.2195H104.476C106.75 27.2195 107.364 28.3545 107.163 29.9013L106.519 34.4714V34.4814ZM102.453 35.757H103.228C104.164 35.757 104.456 35.3753 104.566 34.5819L105.231 29.7908C105.341 29.0074 105.15 28.6157 104.214 28.6157H103.439L102.443 35.747L102.453 35.757ZM113.513 34.1901L115.797 27.2195H117.759L114.076 37.1632H112.114L111.218 27.2195H113.18L113.513 34.1901ZM122.841 27.2195H125.156L125.83 37.1632H123.948L123.898 35.0941H121.915L121.281 37.1632H119.4L122.861 27.2195H122.841ZM122.358 33.6779H123.817L123.676 29.5699L122.358 33.6779ZM134.253 37.1632L132.512 31.0463L131.677 37.1632H129.946L131.304 27.2195H133.035L134.645 33.0853L135.45 27.2195H137.181L135.823 37.1632H134.253ZM145.081 28.696L143.883 37.1632H141.921L143.118 28.696H141.035L141.247 27.2195H147.345L147.134 28.696H145.081ZM152.678 27.2195H154.993L155.667 37.1632H153.785L153.735 35.0941H151.753L151.119 37.1632H149.237L152.699 27.2195H152.678ZM152.195 33.6779H153.655L153.514 29.5699L152.195 33.6779ZM165.841 30.6848H163.949L164.11 29.4192C164.191 28.8668 163.989 28.5152 163.325 28.5152C162.661 28.5152 162.289 28.8768 162.208 29.4694L161.454 34.8932C161.373 35.4959 161.625 35.8474 162.309 35.8474C162.993 35.8474 163.406 35.4657 163.506 34.8028L163.698 33.4368H162.54L162.721 32.1612H165.73L165.036 37.1732H164.161L163.949 36.4702C163.285 37.1431 162.571 37.3339 161.826 37.3339C160.055 37.3339 159.32 36.2492 159.511 34.8229L160.266 29.5096C160.467 28.0231 161.786 27.0588 163.537 27.0588C165.288 27.0588 166.213 27.9929 166.012 29.4694L165.851 30.6848H165.841ZM172.292 31.3175H174.576L174.385 32.7036H172.1L171.688 35.6767H174.908L174.707 37.1532H169.544L170.933 27.2095H175.965L175.753 28.6558H172.654L172.282 31.3175H172.292Z" fill="#ED8322"/>
</g>
<defs>
<clipPath id="clip0_304_2143">
<rect width="180" height="41" fill="white"/>
</clipPath>
</defs>
</svg>
