<svg width="18" height="18" viewBox="0 0 18 18" fill="none" xmlns="http://www.w3.org/2000/svg">
<path d="M14.8728 6.525L11.4753 3.1275C10.7628 2.415 9.78035 2.0325 8.77535 2.085L5.02535 2.265C3.52535 2.3325 2.33285 3.525 2.25785 5.0175L2.07785 8.7675C2.03285 9.7725 2.40785 10.755 3.12035 11.4675L6.51785 14.865C7.91285 16.26 10.1778 16.26 11.5803 14.865L14.8728 11.5725C16.2753 10.185 16.2753 7.92 14.8728 6.525ZM7.12535 9.285C5.93285 9.285 4.96535 8.3175 4.96535 7.125C4.96535 5.9325 5.93285 4.965 7.12535 4.965C8.31785 4.965 9.28535 5.9325 9.28535 7.125C9.28535 8.3175 8.31785 9.285 7.12535 9.285Z" fill="#B3C3CA"/>
</svg>
