<svg width="16" height="16" viewBox="0 0 16 16" fill="none" xmlns="http://www.w3.org/2000/svg">
<g clip-path="url(#clip0_304_2168)">
<path d="M15.9294 3.42299C15.8348 3.26912 15.6617 3.1819 15.4815 3.19752L14.6837 3.26702L15.4463 1.72974C15.5371 1.54664 15.5012 1.32605 15.3571 1.18114C15.2129 1.03624 14.9925 0.999298 14.809 1.08917L12.7906 2.07764C11.5437 1.41933 9.98576 1.61474 8.91376 2.59127C8.01907 3.40627 7.54879 4.65962 7.63648 5.9095C5.29807 5.67512 3.31869 4.33665 2.14825 2.17396C2.07059 2.03049 1.925 1.93664 1.76228 1.92511C1.59925 1.91377 1.44218 1.98602 1.34512 2.11718C0.619181 3.09786 0.568244 4.44249 1.13734 5.54871C0.980464 5.50909 0.813525 5.45546 0.6284 5.39362C0.469806 5.34059 0.294962 5.37456 0.16768 5.48306C0.0403989 5.59156 -0.0207888 5.75878 0.00643005 5.92381C0.231618 7.28906 1.02774 8.33831 2.28537 8.95938C2.12162 9.01641 1.95453 9.06272 1.78462 9.09813C1.61581 9.13332 1.47912 9.25681 1.42709 9.42122C1.37506 9.5856 1.41575 9.76528 1.53356 9.89119C2.43922 10.8593 3.74747 11.3357 4.67672 11.5643C3.62016 12.3917 2.47962 12.5302 0.822307 12.4733C0.630463 12.4674 0.453712 12.5755 0.373056 12.7494C0.292431 12.9234 0.323712 13.1287 0.452556 13.2707C1.14343 14.0322 3.6605 14.8909 6.30651 14.9553C6.41116 14.9578 6.51791 14.9592 6.62691 14.9592C8.48476 14.9592 10.9401 14.5609 12.7025 12.7985C14.0365 11.4646 14.8709 9.92891 15.1824 8.23434C15.434 6.86569 15.275 5.76968 15.1986 5.24293C15.193 5.20421 15.187 5.16312 15.1821 5.12718L15.9284 3.92437C16.0236 3.77093 16.024 3.57687 15.9294 3.42299ZM14.2542 5.37993C14.3958 6.35568 14.8266 9.32494 12.0278 12.1237C10.4009 13.7506 8.03126 14.0427 6.32969 14.0014C4.87778 13.966 3.57909 13.6884 2.63784 13.3717C3.02 13.3248 3.36056 13.2525 3.68203 13.1526C4.56825 12.8771 5.31694 12.3814 6.03813 11.5927C6.15835 11.4613 6.19529 11.2738 6.13401 11.1066C6.07272 10.9393 5.92335 10.8201 5.74666 10.7975C5.29169 10.7392 3.92463 10.5091 2.84812 9.7665C3.15834 9.63963 3.45753 9.48085 3.74322 9.29135C3.89994 9.18735 3.981 9.00103 3.95013 8.8155C3.91928 8.63 3.78238 8.47984 3.60044 8.43216C2.71934 8.20116 1.65596 7.68428 1.16562 6.53043C1.47875 6.58531 1.81922 6.59859 2.18234 6.51718C2.35065 6.4795 2.48553 6.35387 2.53503 6.18862C2.58456 6.02337 2.54106 5.84425 2.42125 5.72018C1.81112 5.08824 1.58296 4.17755 1.77872 3.39827C2.41978 4.33518 3.23194 5.12368 4.16244 5.70665C5.35279 6.45243 6.7421 6.86459 8.18026 6.89844C8.3266 6.90153 8.46698 6.83765 8.56017 6.72428C8.65329 6.61093 8.68911 6.46103 8.65726 6.31781C8.40982 5.20546 8.76273 4.01965 9.55636 3.29674C10.3795 2.5469 11.596 2.43314 12.5147 3.0203C12.655 3.10996 12.8319 3.11999 12.9815 3.04674L13.9671 2.56399L13.4512 3.60402C13.3746 3.75855 13.3873 3.94243 13.4845 4.0849C13.5817 4.22737 13.748 4.30646 13.9201 4.29137L14.6151 4.23084L14.295 4.74693C14.1875 4.92015 14.2098 5.07384 14.2542 5.37993Z" fill="#ED8323"/>
</g>
<defs>
<clipPath id="clip0_304_2168">
<rect width="16" height="16" fill="white"/>
</clipPath>
</defs>
</svg>
