<svg width="730" height="410" viewBox="0 0 730 410" fill="none" xmlns="http://www.w3.org/2000/svg">
<rect width="730" height="410" fill="#12171A"/>
<mask id="mask0_189_7647" style="mask-type:alpha" maskUnits="userSpaceOnUse" x="0" y="0" width="730" height="410">
<rect width="730" height="410" fill="white"/>
</mask>
<g mask="url(#mask0_189_7647)">
<g clip-path="url(#clip0_189_7647)">
<path d="M56.847 189.729C54.721 189.729 53 191.45 53 193.574V212.804C53 214.93 54.721 216.651 56.847 216.651C58.9707 216.651 60.6918 214.93 60.6918 212.804V193.574C60.6918 191.45 58.9707 189.729 56.847 189.729V189.729Z" fill="#31393D"/>
<path d="M76.0906 173.98C73.9669 173.98 72.2437 175.703 72.2437 177.827V231.077C72.2437 233.203 73.9669 234.924 76.0906 234.924C78.2144 234.924 79.9376 233.203 79.9376 231.077V177.827C79.9376 175.703 78.2144 173.98 76.0906 173.98Z" fill="#31393D"/>
<path d="M95.3079 147.421C93.1842 147.421 91.4609 149.142 91.4609 151.266V258.959C91.4609 261.083 93.1842 262.806 95.3079 262.806C97.4317 262.806 99.1549 261.083 99.1549 258.959V151.266C99.1549 149.142 97.4317 147.421 95.3079 147.421Z" fill="#31393D"/>
<path d="M114.538 166.651C112.415 166.651 110.691 168.372 110.691 170.498V235.881C110.691 238.005 112.415 239.728 114.538 239.728C116.662 239.728 118.385 238.005 118.385 235.881V170.498C118.385 168.372 116.662 166.651 114.538 166.651Z" fill="#31393D"/>
<path d="M172.606 157.34C170.482 157.34 168.761 159.061 168.761 161.187V247.719C168.761 249.843 170.482 251.564 172.606 251.564C174.73 251.564 176.453 249.843 176.453 247.719V161.187C176.453 159.061 174.73 157.34 172.606 157.34Z" fill="#31393D"/>
<path d="M210.693 162.804C208.569 162.804 206.846 164.528 206.846 166.651V243.573C206.846 245.699 208.569 247.42 210.693 247.42C212.817 247.42 214.538 245.699 214.538 243.573V166.651C214.538 164.528 212.817 162.804 210.693 162.804Z" fill="#31393D"/>
<path d="M229.924 182.035C227.8 182.035 226.077 183.758 226.077 185.882V224.343C226.077 226.466 227.8 228.19 229.924 228.19C232.047 228.19 233.768 226.466 233.768 224.343V185.882C233.768 183.758 232.047 182.035 229.924 182.035Z" fill="#31393D"/>
<path d="M191.463 132.035C189.337 132.035 187.616 133.758 187.616 135.882V274.342C187.616 276.468 189.337 278.189 191.463 278.189C193.586 278.189 195.307 276.468 195.307 274.342V135.882C195.307 133.758 193.586 132.035 191.463 132.035V132.035Z" fill="#31393D"/>
<path d="M133.769 193.574C131.645 193.574 129.924 195.297 129.924 197.42V212.804C129.924 214.93 131.645 216.651 133.769 216.651C135.893 216.651 137.616 214.93 137.616 212.804V197.42C137.616 195.297 135.893 193.574 133.769 193.574Z" fill="#31393D"/>
<path d="M249.154 192.286C247.03 192.286 245.307 194.007 245.307 196.131V212.773C245.307 214.897 247.03 216.62 249.154 216.62C251.278 216.62 253.001 214.897 253.001 212.773V196.131C253.001 194.007 251.278 192.286 249.154 192.286Z" fill="#31393D"/>
<path d="M152.638 184.953C150.513 184.953 148.792 186.674 148.792 188.798V220.106C148.792 222.23 150.513 223.953 152.638 223.953C154.762 223.953 156.483 222.23 156.483 220.106V188.798C156.483 186.674 154.762 184.953 152.638 184.953Z" fill="#31393D"/>
</g>
<g clip-path="url(#clip1_189_7647)">
<path d="M268.847 189.729C266.721 189.729 265 191.45 265 193.574V212.804C265 214.93 266.721 216.651 268.847 216.651C270.971 216.651 272.692 214.93 272.692 212.804V193.574C272.692 191.45 270.971 189.729 268.847 189.729V189.729Z" fill="#31393D"/>
<path d="M288.091 173.98C285.967 173.98 284.244 175.703 284.244 177.827V231.077C284.244 233.203 285.967 234.924 288.091 234.924C290.214 234.924 291.938 233.203 291.938 231.077V177.827C291.938 175.703 290.214 173.98 288.091 173.98Z" fill="#31393D"/>
<path d="M307.308 147.421C305.184 147.421 303.461 149.142 303.461 151.266V258.959C303.461 261.083 305.184 262.806 307.308 262.806C309.432 262.806 311.155 261.083 311.155 258.959V151.266C311.155 149.142 309.432 147.421 307.308 147.421Z" fill="#31393D"/>
<path d="M326.538 166.651C324.415 166.651 322.691 168.372 322.691 170.498V235.881C322.691 238.005 324.415 239.728 326.538 239.728C328.662 239.728 330.385 238.005 330.385 235.881V170.498C330.385 168.372 328.662 166.651 326.538 166.651Z" fill="#31393D"/>
<path d="M384.606 157.34C382.482 157.34 380.761 159.061 380.761 161.187V247.719C380.761 249.843 382.482 251.564 384.606 251.564C386.73 251.564 388.453 249.843 388.453 247.719V161.187C388.453 159.061 386.73 157.34 384.606 157.34Z" fill="#31393D"/>
<path d="M422.693 162.804C420.569 162.804 418.846 164.528 418.846 166.651V243.573C418.846 245.699 420.569 247.42 422.693 247.42C424.817 247.42 426.538 245.699 426.538 243.573V166.651C426.538 164.528 424.817 162.804 422.693 162.804Z" fill="#31393D"/>
<path d="M441.924 182.035C439.8 182.035 438.077 183.758 438.077 185.882V224.343C438.077 226.466 439.8 228.19 441.924 228.19C444.047 228.19 445.768 226.466 445.768 224.343V185.882C445.768 183.758 444.047 182.035 441.924 182.035Z" fill="#31393D"/>
<path d="M403.463 132.035C401.337 132.035 399.616 133.758 399.616 135.882V274.342C399.616 276.468 401.337 278.189 403.463 278.189C405.586 278.189 407.307 276.468 407.307 274.342V135.882C407.307 133.758 405.586 132.035 403.463 132.035V132.035Z" fill="#31393D"/>
<path d="M345.769 193.574C343.645 193.574 341.924 195.297 341.924 197.42V212.804C341.924 214.93 343.645 216.651 345.769 216.651C347.893 216.651 349.616 214.93 349.616 212.804V197.42C349.616 195.297 347.893 193.574 345.769 193.574Z" fill="#31393D"/>
<path d="M461.154 192.286C459.03 192.286 457.307 194.007 457.307 196.131V212.773C457.307 214.897 459.03 216.62 461.154 216.62C463.278 216.62 465.001 214.897 465.001 212.773V196.131C465.001 194.007 463.278 192.286 461.154 192.286Z" fill="#31393D"/>
<path d="M364.638 184.953C362.513 184.953 360.792 186.674 360.792 188.798V220.106C360.792 222.23 362.513 223.953 364.638 223.953C366.762 223.953 368.483 222.23 368.483 220.106V188.798C368.483 186.674 366.762 184.953 364.638 184.953Z" fill="#31393D"/>
</g>
<g clip-path="url(#clip2_189_7647)">
<path d="M480.847 189.729C478.721 189.729 477 191.45 477 193.574V212.804C477 214.93 478.721 216.651 480.847 216.651C482.971 216.651 484.692 214.93 484.692 212.804V193.574C484.692 191.45 482.971 189.729 480.847 189.729V189.729Z" fill="#31393D"/>
<path d="M500.091 173.98C497.967 173.98 496.244 175.703 496.244 177.827V231.077C496.244 233.203 497.967 234.924 500.091 234.924C502.214 234.924 503.938 233.203 503.938 231.077V177.827C503.938 175.703 502.214 173.98 500.091 173.98Z" fill="#31393D"/>
<path d="M519.308 147.421C517.184 147.421 515.461 149.142 515.461 151.266V258.959C515.461 261.083 517.184 262.806 519.308 262.806C521.432 262.806 523.155 261.083 523.155 258.959V151.266C523.155 149.142 521.432 147.421 519.308 147.421Z" fill="#31393D"/>
<path d="M538.538 166.651C536.415 166.651 534.691 168.372 534.691 170.498V235.881C534.691 238.005 536.415 239.728 538.538 239.728C540.662 239.728 542.385 238.005 542.385 235.881V170.498C542.385 168.372 540.662 166.651 538.538 166.651Z" fill="#31393D"/>
<path d="M596.606 157.34C594.482 157.34 592.761 159.061 592.761 161.187V247.719C592.761 249.843 594.482 251.564 596.606 251.564C598.73 251.564 600.453 249.843 600.453 247.719V161.187C600.453 159.061 598.73 157.34 596.606 157.34Z" fill="#31393D"/>
<path d="M634.693 162.804C632.569 162.804 630.846 164.528 630.846 166.651V243.573C630.846 245.699 632.569 247.42 634.693 247.42C636.817 247.42 638.538 245.699 638.538 243.573V166.651C638.538 164.528 636.817 162.804 634.693 162.804Z" fill="#31393D"/>
<path d="M653.924 182.035C651.8 182.035 650.077 183.758 650.077 185.882V224.343C650.077 226.466 651.8 228.19 653.924 228.19C656.047 228.19 657.768 226.466 657.768 224.343V185.882C657.768 183.758 656.047 182.035 653.924 182.035Z" fill="#31393D"/>
<path d="M615.463 132.035C613.337 132.035 611.616 133.758 611.616 135.882V274.342C611.616 276.468 613.337 278.189 615.463 278.189C617.586 278.189 619.307 276.468 619.307 274.342V135.882C619.307 133.758 617.586 132.035 615.463 132.035V132.035Z" fill="#31393D"/>
<path d="M557.769 193.574C555.645 193.574 553.924 195.297 553.924 197.42V212.804C553.924 214.93 555.645 216.651 557.769 216.651C559.893 216.651 561.616 214.93 561.616 212.804V197.42C561.616 195.297 559.893 193.574 557.769 193.574Z" fill="#31393D"/>
<path d="M673.154 192.286C671.03 192.286 669.307 194.007 669.307 196.131V212.773C669.307 214.897 671.03 216.62 673.154 216.62C675.278 216.62 677.001 214.897 677.001 212.773V196.131C677.001 194.007 675.278 192.286 673.154 192.286Z" fill="#31393D"/>
<path d="M576.638 184.953C574.513 184.953 572.792 186.674 572.792 188.798V220.106C572.792 222.23 574.513 223.953 576.638 223.953C578.762 223.953 580.483 222.23 580.483 220.106V188.798C580.483 186.674 578.762 184.953 576.638 184.953Z" fill="#31393D"/>
</g>
</g>
<defs>
<clipPath id="clip0_189_7647">
<rect width="200" height="200" fill="white" transform="translate(53 105)"/>
</clipPath>
<clipPath id="clip1_189_7647">
<rect width="200" height="200" fill="white" transform="translate(265 105)"/>
</clipPath>
<clipPath id="clip2_189_7647">
<rect width="200" height="200" fill="white" transform="translate(477 105)"/>
</clipPath>
</defs>
</svg>
