<svg width="16" height="16" viewBox="0 0 16 16" fill="none" xmlns="http://www.w3.org/2000/svg">
<path d="M13.9213 2.70874H2.07872C0.9325 2.70874 0 3.64124 0 4.78746V11.2128C0 12.359 0.9325 13.2915 2.07872 13.2915H13.9213C15.0675 13.2915 16 12.359 16 11.2128V4.78746C16 3.64124 15.0675 2.70874 13.9213 2.70874ZM15.0551 11.2128C15.0551 11.838 14.5465 12.3466 13.9213 12.3466H2.07872C1.4535 12.3466 0.944875 11.838 0.944875 11.2128V4.78746C0.944875 4.16224 1.4535 3.65362 2.07872 3.65362H13.9213C14.5465 3.65362 15.0551 4.16224 15.0551 4.78746V11.2128Z" fill="#ED8323"/>
<path d="M11.0393 7.59086L6.52232 4.98298C6.37616 4.89858 6.19607 4.89858 6.04988 4.98298C5.90372 5.06736 5.81366 5.22333 5.81366 5.39211V10.6079C5.81366 10.7766 5.90369 10.9326 6.04988 11.017C6.12294 11.0592 6.20454 11.0803 6.2861 11.0803C6.36766 11.0803 6.44925 11.0592 6.52232 11.017L11.0393 8.40911C11.1855 8.32473 11.2755 8.16876 11.2755 7.99998C11.2755 7.8312 11.1855 7.67523 11.0393 7.59086ZM6.75853 9.78961V6.21039L9.85822 8.00001L6.75853 9.78961Z" fill="#ED8323"/>
</svg>
